<?xml version="1.0" encoding="utf-8"?>
<!-- Generator: Adobe Illustrator 12.0.0, SVG Export Plug-In . SVG Version: 6.00 Build 51448)  -->
<!DOCTYPE svg PUBLIC "-//W3C//DTD SVG 1.1//EN" "http://www.w3.org/Graphics/SVG/1.1/DTD/svg11.dtd" [
	<!ENTITY ns_svg "http://www.w3.org/2000/svg">
	<!ENTITY ns_xlink "http://www.w3.org/1999/xlink">
]>
<svg  version="1.1" id="Layer_1" xmlns="&ns_svg;" xmlns:xlink="&ns_xlink;" width="226.771" height="223.86"
	 viewBox="0 0 226.771 223.86" overflow="visible" enable-background="new 0 0 226.771 223.86" xml:space="preserve">
<g>
	<path fill="#8C5D29" stroke="#000000" stroke-width="6.7968" d="M38.757,133.218c-13.687,9.462-9.383,29.869-0.643,40.825
		c10.261,12.861,25.683,20.942,40.285,27.808c12.038,5.662,27.029,14.272,40.671,14.921c2.119-4.593,10.113-8.282,14.338-11.013
		c7.438-4.81,14.122-9.872,20.825-15.664c6.224-5.378,20.474-17.576,18.975-26.845"/>
	<path fill="#8C5D29" stroke="#000000" stroke-width="6.7968" d="M70.176,180.807c-11.211-5.533-21.908-13.643-29.091-23.975
		c-4.893-7.033-13.667-17.113-13.238-26.208c0.407-8.633,5.13-19.904,9.814-26.999c-4.726,13.83-18.885,17.862-31.647,20.691
		C3.61,111.046,3.5,95.672,10.366,83.629c7.929-13.904,24.411-23.083,34.914-35.071c16.1-18.385,39.664-29.113,64.12-29.113
		c36.634,0,54.418,23.514,80.672,43.569c6.901,5.274,15.257,7.811,21.015,14.65c1.403,1.666,12.688,21.644,11.352,22.097
		c-6.889,2.336-23.868,6.76-29.421,0.677c2.057,14.399-1.086,25.705-6.477,39.283c-4.687,11.804-7.639,20.018-21.184,22.14"/>
	<path fill="#FFCCCC" stroke="#AF4357" stroke-width="4.5312" d="M156.044,121.793c-14.139-9.823-32.777-12.637-49.452-5.616
		c-36.426,15.342-45.01,75.31-0.163,84.734c12.461,2.618,26.466-1.44,38.505-4.549c11.743-3.031,20.394-9.942,25.933-20.729
		c6.887-13.405,8.62-23.155,0.792-36.849C167.722,131.904,162.327,126.156,156.044,121.793z"/>
	<path fill="#FFCCCC" stroke="#AF4357" stroke-width="4.5312" d="M105.215,129.792c5.737-14.573-10.308-19.958-18.806-9.669
		c-6.046,7.317-11.52,35.945,4.079,32.324"/>
	<path fill="#FFCCCC" stroke="#AF4357" stroke-width="4.5312" d="M141.465,125.262c-11.641-16.739,8.331-26.725,20.81-12.403
		c5.813,6.672,13.297,27.454-0.42,29.392"/>
	<path fill="#FCD977" stroke="#000000" stroke-width="4.5312" d="M157.63,46.26c13.073,0.333,24.896-10.389,26.363-22.913
		c0.816-6.976-1.98-11.35-4.852-17.081c6.627-0.49,14.184,5.245,18.726,9.372c15.131,13.735,12.43,37.959-5.067,48.665
		c-0.542,0.33-1.085,0.651-1.634,0.965c-5.492,3.126-11.83,0.247-17.39-2.409c-5.949-2.84-12.71-8.05-15.286-14.317
		c-0.391-0.951-0.642-1.817-0.78-2.616"/>
	<path fill="#FCD977" stroke="#000000" stroke-width="4.5312" d="M23.548,16.826c0.39-0.526,0.68-1.032,0.84-1.517
		c-2.345,7.144-4.232,12.193-0.22,19.688c2.209,4.123,4.31,5.339,8.586,7.2c6.083,2.647,12.274,3.729,18.144,7.142
		c0.286,0.163,3.452,0.559,3.174,0.279c0.852,0.858,1.555,5.3,1.669,6.688c0.715,8.714-2.45,16.194-8.278,22.523
		c-13.244,14.384-28.75-5.766-34.452-16.94c-4.079-7.983-5.689-15.787-3.159-24.537c1.289-4.459,3.353-8.792,5.971-12.619
		C17.382,22.451,21.624,19.424,23.548,16.826z"/>
	<path d="M88.893,137.349c-2.039-3.821-2.134-14.479,4.358-13.59c5.434,0.739,2.708,4.895,2.64,7.594
		c-0.141,5.343,3.408,13.848,10.014,13.076C99.306,147.339,92.09,143.313,88.893,137.349z"/>
	<path fill="#8C5D29" stroke="#000000" stroke-width="2.2656" d="M63.298,38.034c-8.566,5.982-20.833,12.037-25.051,22.201
		c4.985-1.725,10.575-3.799,15.564-5.064c-2.057,6.151,1.028,12.054,6.343,15.314c1.52-3.364,4.646-6.95,5.669-10.892
		c3.421,4.397,9.097,8.481,15.4,7.719C82.681,57.372,92.77,56.07,97.68,48.24c3.945,4.363,5.751,10.805,5.414,16.866
		c7.251-1.817,13.101-7.439,18.03-12.277c0.069,2.781,2.365,6.825,2.413,10.032c5.588-3.012,8.238-13.976,15.422-14.434
		c3.124-0.202,12.619,9.449,15.95,11.917c-1.483-3.811-1.41-8.952-2.002-13.077c0.453,3.172,13.264-4.018,14.3-5.496
		c-5.084-2.911-10.686-5.553-16.267-7.474c-5.068-1.749-10.366-3.942-15.62-5.033"/>
	<g>
		<circle fill="#00A0C6" cx="84.257" cy="90.709" r="13.028"/>
		<circle cx="84.258" cy="90.709" r="7.938"/>
		<path fill="#FFFFFF" d="M84.258,86.102c0,2.545-2.062,4.607-4.609,4.607c-2.539,0-4.605-2.062-4.605-4.607
			c0-2.539,2.066-4.605,4.605-4.605C82.196,81.497,84.258,83.563,84.258,86.102z"/>
		<ellipse fill="#FFFFFF" cx="81.953" cy="96.948" rx="2.304" ry="2.541"/>
	</g>
	<g>
		<circle fill="#00A0C6" cx="143.748" cy="85.273" r="13.027"/>
		<circle cx="143.748" cy="85.273" r="7.94"/>
		<path fill="#FFFFFF" d="M143.748,80.666c0,2.545-2.062,4.607-4.609,4.607c-2.541,0-4.606-2.062-4.606-4.607
			c0-2.539,2.065-4.605,4.606-4.605C141.687,76.061,143.748,78.127,143.748,80.666z"/>
		<ellipse fill="#FFFFFF" cx="141.443" cy="91.512" rx="2.305" ry="2.541"/>
	</g>
	<path fill="none" stroke="#000000" stroke-width="4.5312" stroke-linecap="round" d="M119.149,219.616
		c-1.296-6.067-0.36-12.28,1.851-18.019"/>
	<path d="M151.16,166.504c-1.206-1.335-2.642-2.297-4.143-2.561c-5.651-1-11.427,4.723-16.986,5.39
		c-6.523,0.785-14.268-4.483-20.403-1.137c-3.177,1.733-7.924,10.176-4.625,13.503c4.888,4.93,20.15-1.703,26.051-1.938
		c6.205-0.25,20.198,4.762,23.003-2.65C155.257,173.948,153.737,169.363,151.16,166.504z"/>
	<path d="M154.454,117.113c-4.601-5.082-6.922,1.753-4.764,5.723c2.658,4.884,8.01,8.468,3.445,14.556
		c6.385-4.458,9.157-18.935-0.5-21.187"/>
	<path fill="#FFCCCC" stroke="#AF4357" stroke-width="4.5312" d="M121.3,190.688c4.376-1.972,10.666-6.298,15.441-3.635"/>
	<path fill="none" stroke="#000000" stroke-width="4.5312" d="M36.821,106.667c1.679-2.99,4.02-10.426,0.774-12.747
		c-6.505-4.658-15.792,8.107-20.302,10.474"/>
	<path fill="none" stroke="#000000" stroke-width="4.5312" d="M191.695,98.04c-2.006-2.717-8.815-12.809-5.725-16.197
		c3.347-3.661,17.433,3.839,19.347,6.655"/>
</g>
</svg>
